<?xml version="1.0" encoding="UTF-8"?>
<svg xmlns="http://www.w3.org/2000/svg" xmlns:xlink="http://www.w3.org/1999/xlink" width="290.4pt" height="118.08pt" viewBox="0 0 290.4 118.08" version="1.1">
<defs>
<clipPath id="clip1">
  <path d="M 249 75 L 290.398438 75 L 290.398438 114 L 249 114 Z M 249 75 "/>
</clipPath>
<clipPath id="clip2">
  <path d="M 136 106 L 146 106 L 146 118.078125 L 136 118.078125 Z M 136 106 "/>
</clipPath>
</defs>
<g id="surface1">
<path style=" stroke:none;fill-rule:nonzero;fill:rgb(5.099487%,10.598755%,27.49939%);fill-opacity:1;" d="M 58.046875 66.617188 L 55.144531 61.585938 C 54.722656 60.984375 54.132813 60.742188 53.378906 60.863281 C 51.957031 61.074219 50.308594 61.585938 48.4375 62.402344 C 46.5625 63.21875 44.539063 64.269531 42.363281 65.554688 C 40.1875 66.839844 37.914063 68.308594 35.542969 69.972656 C 33.167969 71.632813 30.761719 73.386719 28.3125 75.230469 L 37.058594 65.984375 C 37.480469 65.621094 37.558594 65.121094 37.289063 64.488281 L 36.109375 62.402344 C 35.804688 61.921875 34.78125 61.367188 32.4375 63.671875 L 0.347656 93.585938 C -0.0429688 93.886719 -0.105469 94.222656 0.167969 94.585938 L 3.703125 100.65625 C 3.820313 100.808594 3.957031 100.808594 4.109375 100.65625 L 13.128906 91.140625 L 13.171875 91.183594 C 14.535156 89.886719 16.085938 88.472656 17.820313 86.945313 C 19.554688 85.421875 21.414063 83.863281 23.394531 82.28125 C 25.371094 80.691406 27.429688 79.105469 29.558594 77.519531 C 31.6875 75.933594 33.839844 74.421875 36.015625 72.988281 C 38.195313 71.550781 40.339844 70.246094 42.453125 69.066406 C 44.570313 67.886719 46.59375 66.890625 48.527344 66.074219 C 49.554688 65.652344 50.226563 65.574219 50.542969 65.847656 C 50.859375 66.121094 50.886719 66.625 50.609375 67.367188 C 50.339844 68.105469 49.789063 69.03125 48.957031 70.132813 C 48.125 71.234375 47.082031 72.382813 45.828125 73.578125 C 44.574219 74.769531 43.117188 75.964844 41.457031 77.15625 C 39.792969 78.351563 38.003906 79.421875 36.085938 80.375 C 34.167969 81.328125 32.136719 82.082031 29.988281 82.640625 C 27.84375 83.199219 25.640625 83.464844 23.371094 83.433594 C 23.128906 83.433594 23.039063 83.5 23.101563 83.636719 C 23.160156 83.773438 23.265625 83.992188 23.417969 84.292969 L 24.867188 86.742188 C 25.773438 90.703125 27.058594 94.425781 28.722656 97.914063 C 30.382813 101.40625 32.511719 104.871094 35.109375 108.316406 C 35.351563 108.617188 35.609375 108.792969 35.882813 108.835938 C 36.152344 108.882813 36.457031 108.84375 36.789063 108.722656 L 39.914063 105.460938 C 40.066406 105.21875 40.121094 105.019531 40.074219 104.871094 C 40.03125 104.71875 39.914063 104.523438 39.734375 104.285156 C 38.554688 102.832031 37.46875 101.417969 36.46875 100.042969 C 35.472656 98.671875 34.535156 97.273438 33.660156 95.851563 C 32.785156 94.433594 31.960938 92.96875 31.191406 91.457031 C 30.421875 89.945313 29.703125 88.328125 29.039063 86.609375 C 31.996094 86.304688 34.816406 85.675781 37.492188 84.726563 C 40.164063 83.773438 42.621094 82.65625 44.855469 81.371094 C 47.089844 80.089844 49.09375 78.699219 50.859375 77.203125 C 52.628906 75.707031 54.085938 74.265625 55.234375 72.875 C 56.382813 71.484375 57.207031 70.230469 57.707031 69.113281 C 58.203125 67.996094 58.316406 67.164063 58.046875 66.617188 "/>
<path style=" stroke:none;fill-rule:nonzero;fill:rgb(5.099487%,10.598755%,27.49939%);fill-opacity:1;" d="M 48.527344 92.679688 C 48.738281 93.042969 49.289063 93.035156 50.179688 92.65625 C 51.070313 92.28125 52.121094 91.683594 53.332031 90.867188 C 54.539063 90.050781 55.800781 89.09375 57.117188 87.988281 C 58.429688 86.886719 59.617188 85.789063 60.671875 84.703125 C 61.730469 83.613281 62.554688 82.628906 63.144531 81.734375 C 63.730469 80.84375 63.90625 80.1875 63.664063 79.761719 C 63.394531 79.308594 62.8125 79.269531 61.917969 79.648438 C 61.027344 80.027344 59.984375 80.640625 58.789063 81.484375 C 57.597656 82.332031 56.359375 83.335938 55.074219 84.496094 C 53.792969 85.664063 52.632813 86.796875 51.609375 87.898438 C 50.582031 89.003906 49.765625 90 49.160156 90.890625 C 48.554688 91.78125 48.34375 92.378906 48.527344 92.679688 M 68.105469 76.863281 C 68.4375 76.46875 68.777344 76.257813 69.125 76.226563 C 69.472656 76.199219 69.796875 76.425781 70.097656 76.90625 L 71.1875 78.8125 C 71.460938 79.265625 71.625 79.589844 71.6875 79.785156 C 71.746094 79.984375 71.625 80.246094 71.324219 80.578125 L 61.308594 91.140625 C 60.945313 91.53125 60.710938 91.871094 60.605469 92.15625 C 60.496094 92.445313 60.492188 92.65625 60.582031 92.792969 C 60.671875 92.929688 60.855469 92.96875 61.125 92.90625 C 61.398438 92.847656 61.730469 92.648438 62.121094 92.316406 L 73.769531 83.570313 C 73.890625 83.507813 73.980469 83.523438 74.042969 83.613281 L 74.453125 84.339844 C 74.511719 84.492188 74.496094 84.597656 74.40625 84.65625 L 61.308594 96.257813 C 61.066406 96.472656 60.664063 96.789063 60.105469 97.214844 C 59.546875 97.636719 58.957031 98.015625 58.339844 98.34375 C 57.71875 98.679688 57.121094 98.890625 56.546875 98.980469 C 55.976563 99.070313 55.550781 98.890625 55.28125 98.4375 L 53.238281 94.945313 C 53.027344 94.585938 52.960938 94.175781 53.035156 93.722656 C 53.109375 93.269531 53.195313 92.847656 53.285156 92.453125 L 47.664063 98.390625 C 47.332031 98.722656 46.910156 98.921875 46.394531 98.980469 C 45.882813 99.039063 45.457031 98.796875 45.128906 98.257813 L 42.996094 94.628906 C 42.636719 94.027344 42.703125 93.117188 43.199219 91.910156 C 43.699219 90.699219 44.460938 89.371094 45.488281 87.921875 C 46.519531 86.472656 47.738281 84.988281 49.160156 83.480469 C 50.582031 81.96875 52.03125 80.59375 53.511719 79.355469 C 54.992188 78.117188 56.425781 77.105469 57.816406 76.316406 C 59.207031 75.53125 60.402344 75.140625 61.398438 75.140625 C 62.183594 75.140625 62.816406 75.519531 63.300781 76.273438 L 65.34375 79.761719 "/>
<path style=" stroke:none;fill-rule:nonzero;fill:rgb(5.099487%,10.598755%,27.49939%);fill-opacity:1;" d="M 69.261719 90.460938 C 69.492188 89.460938 69.949219 88.417969 70.644531 87.332031 C 71.339844 86.242188 72.207031 85.140625 73.25 84.023438 C 74.292969 82.902344 75.40625 81.839844 76.582031 80.828125 C 77.761719 79.816406 78.964844 78.902344 80.1875 78.085938 C 81.410156 77.269531 82.535156 76.605469 83.5625 76.089844 C 84.589844 75.578125 85.480469 75.269531 86.238281 75.164063 C 86.992188 75.058594 87.488281 75.214844 87.730469 75.636719 L 90.632813 80.714844 C 90.875 81.105469 90.933594 81.570313 90.816406 82.097656 C 90.695313 82.625 90.445313 83.171875 90.066406 83.730469 C 89.6875 84.289063 89.234375 84.832031 88.707031 85.359375 C 88.175781 85.886719 87.632813 86.378906 87.074219 86.832031 C 86.515625 87.285156 85.964844 87.679688 85.421875 88.011719 C 84.878906 88.34375 84.425781 88.554688 84.058594 88.648438 C 83.847656 88.707031 83.691406 88.660156 83.585938 88.511719 C 83.480469 88.359375 83.367188 88.222656 83.246094 88.101563 L 82.25 86.289063 C 82.128906 86.046875 82.089844 85.851563 82.136719 85.699219 C 82.179688 85.546875 82.324219 85.382813 82.566406 85.203125 C 82.777344 85.019531 83.230469 84.6875 83.925781 84.203125 C 84.621094 83.722656 85.304688 83.191406 85.988281 82.617188 C 86.667969 82.042969 87.242188 81.484375 87.710938 80.941406 C 88.175781 80.398438 88.308594 79.972656 88.09375 79.671875 C 87.824219 79.308594 87.316406 79.300781 86.578125 79.648438 C 85.835938 79.996094 85.035156 80.480469 84.175781 81.101563 C 83.3125 81.71875 82.492188 82.359375 81.703125 83.027344 C 80.917969 83.691406 80.375 84.175781 80.070313 84.476563 C 79.679688 84.839844 79.21875 85.300781 78.691406 85.859375 C 78.160156 86.417969 77.664063 87.015625 77.195313 87.648438 C 76.726563 88.28125 76.339844 88.917969 76.039063 89.554688 C 75.738281 90.1875 75.625 90.753906 75.699219 91.253906 C 75.773438 91.75 76.082031 92.15625 76.628906 92.476563 C 77.171875 92.792969 78.0625 92.953125 79.300781 92.953125 C 80.84375 92.953125 82.359375 92.636719 83.855469 92 C 85.351563 91.363281 86.804688 90.570313 88.207031 89.621094 C 89.613281 88.667969 90.980469 87.648438 92.308594 86.5625 C 93.640625 85.472656 94.894531 84.476563 96.074219 83.570313 C 96.222656 83.507813 96.3125 83.523438 96.34375 83.613281 L 96.796875 84.339844 C 96.855469 84.460938 96.828125 84.566406 96.707031 84.65625 C 96.164063 85.171875 95.445313 85.84375 94.554688 86.675781 C 93.660156 87.507813 92.671875 88.40625 91.585938 89.371094 C 90.496094 90.339844 89.332031 91.335938 88.09375 92.363281 C 86.855469 93.390625 85.601563 94.347656 84.332031 95.242188 C 83.0625 96.132813 81.800781 96.902344 80.546875 97.550781 C 79.296875 98.203125 78.125 98.640625 77.035156 98.867188 C 75.949219 99.09375 74.949219 99.070313 74.042969 98.796875 C 73.140625 98.527344 72.398438 97.890625 71.824219 96.894531 L 69.601563 93.089844 C 69.148438 92.332031 69.039063 91.457031 69.261719 90.460938 "/>
<path style=" stroke:none;fill-rule:nonzero;fill:rgb(5.099487%,10.598755%,27.49939%);fill-opacity:1;" d="M 96.570313 90.097656 L 111.933594 77.085938 C 112.144531 76.910156 112.394531 76.742188 112.683594 76.589844 C 112.96875 76.4375 113.253906 76.339844 113.542969 76.292969 C 113.832031 76.25 114.101563 76.273438 114.359375 76.363281 C 114.613281 76.457031 114.835938 76.652344 115.015625 76.953125 L 116.101563 78.8125 C 116.375 79.265625 116.46875 79.671875 116.375 80.035156 C 116.285156 80.398438 116.074219 80.746094 115.742188 81.078125 L 106.359375 91.140625 C 105.996094 91.535156 105.761719 91.871094 105.65625 92.160156 C 105.550781 92.445313 105.542969 92.65625 105.632813 92.792969 C 105.726563 92.929688 105.902344 92.96875 106.179688 92.90625 C 106.449219 92.847656 106.78125 92.648438 107.175781 92.316406 L 118.824219 83.570313 C 118.941406 83.507813 119.035156 83.523438 119.09375 83.613281 L 119.503906 84.339844 C 119.5625 84.460938 119.546875 84.566406 119.457031 84.65625 L 106.359375 96.214844 C 106.117188 96.425781 105.726563 96.753906 105.179688 97.1875 C 104.636719 97.628906 104.046875 98.015625 103.410156 98.34375 C 102.777344 98.675781 102.171875 98.886719 101.601563 98.980469 C 101.023438 99.070313 100.585938 98.859375 100.285156 98.34375 L 98.292969 94.945313 C 98.046875 94.523438 97.972656 94.035156 98.066406 93.472656 C 98.15625 92.914063 98.382813 92.4375 98.746094 92.046875 L 103.820313 86.695313 L 90.222656 98.164063 C 90.070313 98.285156 89.917969 98.421875 89.769531 98.574219 C 89.617188 98.722656 89.460938 98.835938 89.292969 98.914063 C 89.128906 98.988281 88.960938 99.003906 88.796875 98.957031 C 88.632813 98.914063 88.46875 98.753906 88.320313 98.480469 L 86.414063 95.171875 C 86.082031 94.628906 86.046875 94.199219 86.304688 93.882813 C 86.558594 93.5625 86.855469 93.222656 87.1875 92.859375 L 113.882813 64.671875 C 114.0625 64.488281 114.261719 64.285156 114.472656 64.058594 C 114.683594 63.832031 114.894531 63.660156 115.105469 63.535156 C 115.316406 63.417969 115.53125 63.371094 115.742188 63.398438 C 115.953125 63.429688 116.148438 63.613281 116.328125 63.941406 L 117.554688 65.984375 C 117.824219 66.46875 117.992188 66.800781 118.050781 66.980469 C 118.113281 67.164063 117.992188 67.417969 117.6875 67.753906 "/>
<path style=" stroke:none;fill-rule:nonzero;fill:rgb(5.099487%,10.598755%,27.49939%);fill-opacity:1;" d="M 133.464844 79.671875 C 133.28125 79.371094 132.820313 79.355469 132.078125 79.625 C 131.339844 79.898438 130.472656 80.351563 129.476563 80.988281 C 128.476563 81.621094 127.433594 82.398438 126.347656 83.320313 C 125.257813 84.242188 124.277344 85.171875 123.402344 86.109375 C 123.703125 86.351563 124.179688 86.386719 124.828125 86.222656 C 125.476563 86.054688 126.1875 85.761719 126.957031 85.335938 C 127.730469 84.914063 128.523438 84.417969 129.339844 83.839844 C 130.152344 83.269531 130.886719 82.703125 131.535156 82.140625 C 132.1875 81.585938 132.691406 81.078125 133.054688 80.625 C 133.417969 80.171875 133.554688 79.851563 133.464844 79.671875 M 114.5625 93.089844 C 114.046875 92.242188 113.933594 91.3125 114.222656 90.300781 C 114.507813 89.289063 114.976563 88.285156 115.628906 87.285156 C 116.277344 86.289063 117.03125 85.34375 117.894531 84.453125 C 118.753906 83.5625 119.503906 82.816406 120.136719 82.210938 C 121.195313 81.210938 122.28125 80.285156 123.402344 79.421875 C 124.519531 78.5625 125.59375 77.8125 126.617188 77.179688 C 127.644531 76.542969 128.589844 76.046875 129.449219 75.683594 C 130.3125 75.320313 131.03125 75.140625 131.605469 75.140625 C 132.085938 75.140625 132.449219 75.304688 132.691406 75.636719 L 135.320313 80.171875 C 135.773438 80.957031 135.84375 81.78125 135.523438 82.640625 C 135.207031 83.5 134.65625 84.328125 133.871094 85.113281 C 133.085938 85.898438 132.140625 86.582031 131.035156 87.171875 C 129.933594 87.761719 128.832031 88.191406 127.730469 88.464844 C 126.625 88.738281 125.582031 88.804688 124.601563 88.667969 C 123.617188 88.53125 122.871094 88.101563 122.359375 87.378906 C 121.84375 88.074219 121.421875 88.753906 121.089844 89.417969 C 120.753906 90.082031 120.621094 90.671875 120.679688 91.183594 C 120.742188 91.699219 121.042969 92.121094 121.585938 92.453125 C 122.128906 92.785156 123.023438 92.953125 124.261719 92.953125 C 125.804688 92.953125 127.320313 92.636719 128.816406 92 C 130.3125 91.367188 131.765625 90.570313 133.167969 89.621094 C 134.574219 88.667969 135.933594 87.648438 137.246094 86.5625 C 138.5625 85.472656 139.824219 84.476563 141.03125 83.570313 C 141.183594 83.507813 141.273438 83.523438 141.304688 83.613281 L 141.753906 84.339844 C 141.816406 84.460938 141.785156 84.570313 141.667969 84.65625 C 141.121094 85.171875 140.402344 85.84375 139.511719 86.675781 C 138.621094 87.507813 137.632813 88.40625 136.546875 89.371094 C 135.457031 90.339844 134.292969 91.335938 133.054688 92.363281 C 131.816406 93.390625 130.5625 94.347656 129.292969 95.242188 C 128.023438 96.132813 126.761719 96.902344 125.507813 97.550781 C 124.253906 98.203125 123.082031 98.640625 121.996094 98.867188 C 120.910156 99.09375 119.910156 99.070313 119.003906 98.796875 C 118.097656 98.527344 117.355469 97.890625 116.785156 96.894531 "/>
<path style=" stroke:none;fill-rule:nonzero;fill:rgb(5.099487%,10.598755%,27.49939%);fill-opacity:1;" d="M 159.476563 63.945313 C 159.777344 63.613281 160.117188 63.417969 160.496094 63.355469 C 160.875 63.292969 161.199219 63.523438 161.472656 64.035156 L 162.558594 65.894531 C 162.832031 66.347656 163.003906 66.671875 163.082031 66.867188 C 163.15625 67.066406 163.027344 67.328125 162.695313 67.660156 L 140.488281 91.140625 C 140.125 91.53125 139.890625 91.871094 139.785156 92.160156 C 139.675781 92.445313 139.671875 92.65625 139.761719 92.792969 C 139.851563 92.929688 140.035156 92.96875 140.304688 92.90625 C 140.578125 92.847656 140.910156 92.648438 141.300781 92.316406 L 152.90625 83.570313 C 153.054688 83.507813 153.160156 83.527344 153.222656 83.613281 L 153.632813 84.339844 C 153.691406 84.460938 153.675781 84.566406 153.585938 84.65625 L 140.441406 96.214844 C 140.199219 96.425781 139.808594 96.753906 139.261719 97.191406 C 138.71875 97.628906 138.136719 98.019531 137.519531 98.367188 C 136.898438 98.714844 136.304688 98.925781 135.726563 99.003906 C 135.15625 99.078125 134.714844 98.859375 134.414063 98.34375 L 132.421875 94.945313 C 132.179688 94.582031 132.101563 94.105469 132.191406 93.519531 C 132.28125 92.929688 132.492188 92.4375 132.828125 92.046875 "/>
<path style=" stroke:none;fill-rule:nonzero;fill:rgb(5.099487%,10.598755%,27.49939%);fill-opacity:1;" d="M 184.269531 73.960938 C 185.480469 73.960938 186.699219 73.816406 187.921875 73.53125 C 189.144531 73.242188 190.308594 72.867188 191.410156 72.398438 C 192.511719 71.929688 193.519531 71.394531 194.425781 70.789063 C 195.328125 70.183594 196.070313 69.550781 196.644531 68.886719 C 197.21875 68.21875 197.601563 67.5625 197.800781 66.914063 C 197.996094 66.265625 197.941406 65.667969 197.640625 65.125 C 197.21875 64.398438 196.480469 64.085938 195.421875 64.191406 C 194.363281 64.300781 193.101563 64.707031 191.636719 65.417969 C 190.171875 66.128906 188.554688 67.089844 186.785156 68.296875 C 185.019531 69.503906 183.222656 70.855469 181.394531 72.351563 C 179.5625 73.847656 177.761719 75.433594 175.976563 77.109375 C 174.195313 78.789063 172.554688 80.449219 171.058594 82.097656 C 169.5625 83.742188 168.257813 85.316406 167.140625 86.8125 C 166.019531 88.308594 165.226563 89.621094 164.761719 90.753906 C 164.289063 91.886719 164.183594 92.792969 164.445313 93.472656 C 164.699219 94.152344 165.449219 94.492188 166.6875 94.492188 C 167.5625 94.492188 168.613281 94.328125 169.835938 93.996094 C 171.058594 93.660156 172.34375 93.21875 173.6875 92.65625 C 175.03125 92.097656 176.414063 91.441406 177.835938 90.683594 C 179.253906 89.933594 180.605469 89.144531 181.890625 88.328125 C 183.175781 87.511719 184.371094 86.675781 185.472656 85.8125 C 186.574219 84.953125 187.472656 84.128906 188.167969 83.34375 C 188.589844 82.859375 188.894531 82.785156 189.074219 83.117188 L 189.710938 84.160156 C 189.769531 84.25 189.808594 84.328125 189.824219 84.386719 C 189.839844 84.445313 189.800781 84.523438 189.710938 84.613281 C 188.832031 85.609375 187.789063 86.707031 186.582031 87.898438 C 185.375 89.09375 184.066406 90.285156 182.660156 91.476563 C 181.257813 92.675781 179.777344 93.828125 178.21875 94.945313 C 176.664063 96.066406 175.09375 97.050781 173.507813 97.914063 C 171.921875 98.777344 170.355469 99.472656 168.8125 100 C 167.273438 100.527344 165.824219 100.792969 164.464844 100.792969 C 163.890625 100.792969 163.488281 100.738281 163.265625 100.632813 C 163.035156 100.527344 162.832031 100.308594 162.652344 99.976563 L 159.117188 93.949219 C 158.453125 92.832031 158.246094 91.503906 158.503906 89.960938 C 158.761719 88.417969 159.355469 86.765625 160.296875 84.996094 C 161.230469 83.230469 162.472656 81.410156 164.011719 79.539063 C 165.554688 77.664063 167.304688 75.835938 169.269531 74.050781 C 171.234375 72.269531 173.347656 70.578125 175.613281 68.972656 C 177.878906 67.375 180.207031 65.96875 182.59375 64.761719 C 184.980469 63.554688 187.375 62.601563 189.777344 61.902344 C 192.179688 61.210938 194.496094 60.859375 196.734375 60.859375 C 197.246094 60.859375 197.589844 60.917969 197.753906 61.023438 C 197.921875 61.128906 198.140625 61.363281 198.414063 61.722656 L 202.21875 68.25 C 202.308594 68.492188 202.363281 68.660156 202.378906 68.75 C 202.394531 68.839844 202.339844 69.003906 202.21875 69.25 C 201.554688 70.605469 200.695313 71.824219 199.636719 72.894531 C 198.578125 73.96875 197.398438 74.90625 196.101563 75.707031 C 194.800781 76.507813 193.429688 77.164063 191.976563 77.675781 C 190.523438 78.191406 189.09375 78.582031 187.671875 78.855469 C 187.335938 78.917969 187.113281 78.921875 186.988281 78.878906 C 186.871094 78.832031 186.746094 78.691406 186.628906 78.449219 L 184.136719 74.140625 C 184.042969 74.023438 184.089844 73.960938 184.269531 73.960938 "/>
<path style=" stroke:none;fill-rule:nonzero;fill:rgb(5.099487%,10.598755%,27.49939%);fill-opacity:1;" d="M 195.464844 90.097656 L 210.828125 77.085938 C 211.039063 76.910156 211.289063 76.742188 211.578125 76.589844 C 211.863281 76.4375 212.152344 76.339844 212.4375 76.292969 C 212.726563 76.25 212.996094 76.273438 213.253906 76.363281 C 213.511719 76.457031 213.730469 76.652344 213.910156 76.953125 L 214.996094 78.8125 C 215.269531 79.265625 215.363281 79.671875 215.269531 80.035156 C 215.179688 80.398438 214.96875 80.746094 214.636719 81.078125 L 205.253906 91.140625 C 204.890625 91.535156 204.65625 91.871094 204.550781 92.160156 C 204.445313 92.445313 204.4375 92.65625 204.53125 92.792969 C 204.621094 92.929688 204.800781 92.96875 205.074219 92.90625 C 205.34375 92.847656 205.679688 92.648438 206.070313 92.316406 L 217.71875 83.570313 C 217.839844 83.507813 217.929688 83.523438 217.988281 83.613281 L 218.398438 84.339844 C 218.460938 84.460938 218.441406 84.566406 218.355469 84.65625 L 205.253906 96.214844 C 205.015625 96.425781 204.621094 96.753906 204.078125 97.1875 C 203.53125 97.628906 202.941406 98.015625 202.308594 98.34375 C 201.675781 98.675781 201.070313 98.886719 200.496094 98.980469 C 199.921875 99.070313 199.480469 98.859375 199.183594 98.34375 L 197.1875 94.945313 C 196.945313 94.523438 196.867188 94.035156 196.960938 93.472656 C 197.050781 92.914063 197.277344 92.4375 197.640625 92.046875 L 202.71875 86.695313 L 189.117188 98.164063 C 188.964844 98.285156 188.816406 98.421875 188.664063 98.574219 C 188.515625 98.722656 188.355469 98.835938 188.191406 98.914063 C 188.023438 98.988281 187.855469 99.003906 187.691406 98.957031 C 187.527344 98.914063 187.367188 98.753906 187.214844 98.480469 L 185.3125 95.171875 C 184.980469 94.628906 184.941406 94.199219 185.199219 93.882813 C 185.453125 93.5625 185.75 93.222656 186.082031 92.859375 L 212.777344 64.671875 C 212.960938 64.488281 213.15625 64.285156 213.367188 64.058594 C 213.578125 63.832031 213.789063 63.660156 214.003906 63.535156 C 214.210938 63.417969 214.425781 63.371094 214.636719 63.398438 C 214.847656 63.429688 215.042969 63.613281 215.226563 63.941406 L 216.449219 65.984375 C 216.722656 66.46875 216.886719 66.800781 216.945313 66.980469 C 217.011719 67.164063 216.886719 67.417969 216.585938 67.753906 "/>
<path style=" stroke:none;fill-rule:nonzero;fill:rgb(5.099487%,10.598755%,27.49939%);fill-opacity:1;" d="M 224.0625 76.769531 C 224.363281 76.4375 224.703125 76.25 225.085938 76.207031 C 225.460938 76.160156 225.785156 76.378906 226.058594 76.863281 L 227.144531 78.71875 C 227.417969 79.171875 227.589844 79.5 227.667969 79.695313 C 227.742188 79.890625 227.613281 80.15625 227.28125 80.488281 L 217.265625 91.09375 C 216.75 91.636719 216.492188 92.078125 216.492188 92.410156 C 216.492188 92.742188 216.644531 92.90625 216.945313 92.90625 C 217.460938 92.90625 218.105469 92.710938 218.875 92.316406 C 219.644531 91.925781 220.460938 91.425781 221.320313 90.820313 C 222.183594 90.21875 223.050781 89.546875 223.929688 88.804688 C 224.804688 88.066406 225.628906 87.355469 226.398438 86.675781 C 227.167969 85.996094 227.839844 85.375 228.414063 84.816406 C 228.988281 84.257813 229.414063 83.839844 229.683594 83.570313 L 236.117188 76.816406 C 236.421875 76.484375 236.753906 76.289063 237.117188 76.226563 C 237.480469 76.167969 237.8125 76.378906 238.113281 76.863281 L 239.199219 78.71875 C 239.472656 79.203125 239.640625 79.539063 239.699219 79.71875 C 239.757813 79.898438 239.640625 80.15625 239.339844 80.488281 L 229.320313 91.09375 C 228.960938 91.488281 228.730469 91.828125 228.640625 92.113281 C 228.550781 92.398438 228.558594 92.605469 228.664063 92.722656 C 228.769531 92.847656 228.960938 92.882813 229.230469 92.839844 C 229.503906 92.792969 229.804688 92.617188 230.136719 92.316406 L 241.738281 83.570313 C 241.859375 83.480469 241.96875 83.496094 242.058594 83.613281 L 242.464844 84.339844 C 242.523438 84.460938 242.492188 84.566406 242.375 84.65625 L 227.597656 97.667969 C 226.722656 98.453125 225.851563 98.886719 224.992188 98.980469 C 224.132813 99.070313 223.488281 98.769531 223.066406 98.074219 L 221.253906 94.945313 C 221.070313 94.644531 220.988281 94.28125 221.003906 93.859375 C 221.019531 93.4375 221.101563 93.027344 221.253906 92.636719 L 214.773438 98.300781 C 214.53125 98.511719 214.234375 98.675781 213.890625 98.796875 C 213.539063 98.921875 213.1875 98.980469 212.824219 98.980469 C 212.460938 98.980469 212.121094 98.914063 211.804688 98.777344 C 211.488281 98.640625 211.238281 98.40625 211.054688 98.074219 L 209.199219 94.945313 C 208.957031 94.554688 208.878906 94.0625 208.972656 93.472656 C 209.0625 92.882813 209.285156 92.410156 209.652344 92.046875 "/>
<path style=" stroke:none;fill-rule:nonzero;fill:rgb(5.099487%,10.598755%,27.49939%);fill-opacity:1;" d="M 242.238281 90.097656 L 257.644531 77.042969 C 257.855469 76.863281 258.101563 76.699219 258.371094 76.542969 C 258.644531 76.394531 258.929688 76.292969 259.230469 76.25 C 259.535156 76.207031 259.816406 76.226563 260.070313 76.316406 C 260.328125 76.410156 260.546875 76.605469 260.730469 76.910156 L 261.816406 78.765625 C 262.089844 79.25 262.253906 79.582031 262.316406 79.761719 C 262.375 79.945313 262.253906 80.203125 261.953125 80.535156 L 252.023438 91.140625 C 251.664063 91.535156 251.429688 91.871094 251.324219 92.160156 C 251.21875 92.445313 251.210938 92.65625 251.300781 92.792969 C 251.394531 92.929688 251.574219 92.96875 251.847656 92.90625 C 252.117188 92.847656 252.464844 92.648438 252.890625 92.316406 L 264.492188 83.570313 C 264.644531 83.507813 264.734375 83.523438 264.761719 83.613281 L 265.214844 84.339844 C 265.273438 84.460938 265.261719 84.566406 265.171875 84.65625 L 252.023438 96.214844 C 251.785156 96.425781 251.398438 96.742188 250.871094 97.167969 C 250.34375 97.589844 249.769531 97.976563 249.148438 98.324219 C 248.53125 98.671875 247.933594 98.886719 247.359375 98.980469 C 246.785156 99.070313 246.34375 98.886719 246.042969 98.433594 L 244.003906 94.945313 C 243.761719 94.523438 243.6875 94.035156 243.777344 93.472656 C 243.871094 92.914063 244.078125 92.4375 244.414063 92.046875 L 249.488281 86.695313 L 235.9375 98.164063 C 235.785156 98.285156 235.632813 98.421875 235.484375 98.574219 C 235.332031 98.722656 235.175781 98.835938 235.007813 98.914063 C 234.839844 98.988281 234.675781 99.003906 234.511719 98.957031 C 234.34375 98.914063 234.183594 98.753906 234.035156 98.480469 L 232.085938 95.171875 C 231.933594 94.898438 231.855469 94.660156 231.855469 94.449219 C 231.855469 94.234375 231.902344 94.046875 231.992188 93.882813 C 232.085938 93.714844 232.214844 93.546875 232.378906 93.382813 C 232.546875 93.21875 232.71875 93.042969 232.898438 92.859375 L 247.628906 77.316406 C 247.8125 77.132813 248.015625 76.953125 248.242188 76.769531 C 248.46875 76.589844 248.703125 76.457031 248.945313 76.363281 C 249.1875 76.273438 249.425781 76.265625 249.671875 76.339844 C 249.910156 76.417969 250.121094 76.605469 250.304688 76.910156 L 251.347656 78.71875 C 251.617188 79.203125 251.710938 79.589844 251.617188 79.875 C 251.527344 80.164063 251.328125 80.472656 251.027344 80.804688 "/>
<g clip-path="url(#clip1)" clip-rule="nonzero">
<path style=" stroke:none;fill-rule:nonzero;fill:rgb(5.099487%,10.598755%,27.49939%);fill-opacity:1;" d="M 270.429688 84.792969 C 268.886719 86.425781 267.800781 87.722656 267.164063 88.691406 C 266.53125 89.660156 266.222656 90.347656 266.234375 90.753906 C 266.25 91.160156 266.546875 91.320313 267.121094 91.226563 C 267.691406 91.140625 268.402344 90.867188 269.25 90.414063 C 270.09375 89.960938 271.023438 89.34375 272.039063 88.554688 C 273.050781 87.769531 274.023438 86.894531 274.960938 85.925781 C 276.289063 84.539063 277.257813 83.375 277.863281 82.4375 C 278.46875 81.5 278.796875 80.785156 278.859375 80.285156 C 278.921875 79.785156 278.738281 79.507813 278.316406 79.445313 C 277.890625 79.386719 277.289063 79.542969 276.5 79.921875 C 275.714844 80.300781 274.800781 80.894531 273.761719 81.710938 C 272.71875 82.527344 271.605469 83.554688 270.429688 84.792969 M 259.097656 103.058594 C 258.855469 103.148438 258.507813 103.261719 258.054688 103.398438 C 257.605469 103.535156 257.113281 103.703125 256.582031 103.898438 C 256.054688 104.09375 255.519531 104.3125 254.972656 104.554688 C 254.429688 104.796875 253.945313 105.046875 253.523438 105.300781 C 253.097656 105.558594 252.757813 105.832031 252.503906 106.117188 C 252.246094 106.40625 252.164063 106.683594 252.253906 106.957031 C 252.34375 107.378906 252.566406 107.605469 252.910156 107.636719 C 253.257813 107.664063 253.65625 107.558594 254.113281 107.320313 C 254.566406 107.078125 255.046875 106.753906 255.5625 106.34375 C 256.074219 105.9375 256.574219 105.511719 257.058594 105.078125 C 257.542969 104.636719 257.964844 104.226563 258.328125 103.851563 C 258.6875 103.472656 258.945313 103.210938 259.097656 103.058594 M 278.679688 76.226563 C 278.796875 76.46875 278.972656 76.765625 279.199219 77.109375 C 279.425781 77.460938 279.644531 77.8125 279.855469 78.175781 C 280.066406 78.539063 280.265625 78.894531 280.445313 79.242188 C 280.625 79.589844 280.761719 79.882813 280.855469 80.125 L 283.980469 76.816406 C 284.3125 76.484375 284.660156 76.289063 285.023438 76.226563 C 285.386719 76.167969 285.703125 76.378906 285.972656 76.863281 L 287.105469 78.765625 C 287.347656 79.21875 287.476563 79.574219 287.492188 79.828125 C 287.507813 80.089844 287.410156 80.324219 287.199219 80.535156 L 275.367188 93.042969 C 277.878906 91.621094 280.308594 90.121094 282.664063 88.53125 C 285.023438 86.945313 287.347656 85.292969 289.644531 83.570313 C 289.796875 83.507813 289.886719 83.523438 289.917969 83.613281 L 290.371094 84.339844 C 290.429688 84.460938 290.398438 84.566406 290.28125 84.65625 C 288.46875 86.261719 286.722656 87.703125 285.046875 88.984375 C 283.367188 90.269531 281.730469 91.457031 280.128906 92.542969 C 278.527344 93.632813 276.933594 94.636719 275.347656 95.558594 C 273.761719 96.480469 272.152344 97.347656 270.519531 98.164063 L 264.175781 104.78125 C 263.449219 105.539063 262.699219 106.324219 261.929688 107.136719 C 261.160156 107.953125 260.398438 108.730469 259.644531 109.472656 C 258.886719 110.214844 258.148438 110.878906 257.421875 111.46875 C 256.695313 112.054688 256.015625 112.492188 255.382813 112.78125 C 254.746094 113.066406 254.164063 113.167969 253.636719 113.074219 C 253.109375 112.984375 252.660156 112.636719 252.300781 112.03125 L 250.257813 108.453125 C 249.777344 107.605469 249.664063 106.8125 249.917969 106.074219 C 250.179688 105.332031 250.675781 104.660156 251.414063 104.054688 C 252.15625 103.453125 253.0625 102.902344 254.136719 102.402344 C 255.210938 101.902344 256.292969 101.453125 257.398438 101.042969 C 258.503906 100.632813 259.542969 100.269531 260.523438 99.957031 C 261.507813 99.636719 262.285156 99.359375 262.859375 99.117188 L 269.113281 92.5 L 264.308594 95.941406 C 263.976563 96.183594 263.613281 96.277344 263.222656 96.214844 C 262.828125 96.152344 262.496094 95.898438 262.222656 95.445313 L 260.59375 92.542969 C 260.230469 91.941406 260.238281 91.085938 260.617188 89.980469 C 260.992188 88.878906 261.621094 87.679688 262.496094 86.378906 C 263.371094 85.082031 264.425781 83.765625 265.644531 82.4375 C 266.871094 81.105469 268.140625 79.898438 269.453125 78.8125 C 270.769531 77.722656 272.066406 76.839844 273.351563 76.160156 C 274.636719 75.480469 275.777344 75.140625 276.773438 75.140625 C 277.136719 75.140625 277.484375 75.230469 277.816406 75.414063 C 278.148438 75.59375 278.4375 75.867188 278.679688 76.226563 "/>
</g>
<path style=" stroke:none;fill-rule:nonzero;fill:rgb(39.199829%,73.298645%,74.499512%);fill-opacity:1;" d="M 60.136719 108.488281 L 60.136719 111.394531 L 63.734375 111.394531 L 63.734375 112.574219 L 60.136719 112.574219 L 60.136719 117.652344 L 58.847656 117.652344 L 58.847656 107.304688 L 63.855469 107.304688 L 63.855469 108.488281 "/>
<path style=" stroke:none;fill-rule:nonzero;fill:rgb(39.199829%,73.298645%,74.499512%);fill-opacity:1;" d="M 86.003906 117.652344 L 87.292969 117.652344 L 87.292969 107.304688 L 86.003906 107.304688 Z M 86.003906 117.652344 "/>
<path style=" stroke:none;fill-rule:nonzero;fill:rgb(39.199829%,73.298645%,74.499512%);fill-opacity:1;" d="M 112.675781 117.652344 L 111.386719 117.652344 L 111.386719 108.488281 L 108.933594 108.488281 L 108.933594 107.304688 L 115.132813 107.304688 L 115.132813 108.488281 L 112.675781 108.488281 "/>
<g clip-path="url(#clip2)" clip-rule="nonzero">
<path style=" stroke:none;fill-rule:nonzero;fill:rgb(39.199829%,73.298645%,74.499512%);fill-opacity:1;" d="M 136.699219 106.816406 L 144.464844 114.949219 L 144.464844 107.304688 L 145.757813 107.304688 L 145.757813 118.078125 L 137.988281 109.941406 L 137.988281 117.652344 L 136.699219 117.652344 "/>
</g>
<path style=" stroke:none;fill-rule:nonzero;fill:rgb(39.199829%,73.298645%,74.499512%);fill-opacity:1;" d="M 168.285156 107.304688 L 173.84375 107.304688 L 173.84375 108.488281 L 169.578125 108.488281 L 169.578125 111.382813 L 173.722656 111.382813 L 173.722656 112.5625 L 169.578125 112.5625 L 169.578125 116.472656 L 173.84375 116.472656 L 173.84375 117.652344 L 168.285156 117.652344 "/>
<path style=" stroke:none;fill-rule:nonzero;fill:rgb(39.199829%,73.298645%,74.499512%);fill-opacity:1;" d="M 200.714844 109.269531 C 200.332031 108.621094 199.835938 108.292969 199.054688 108.292969 C 198.230469 108.292969 197.324219 108.859375 197.324219 109.761719 C 197.324219 110.574219 198.117188 111 198.765625 111.246094 L 199.507813 111.535156 C 200.972656 112.109375 202.070313 112.921875 202.070313 114.648438 C 202.070313 116.527344 200.617188 117.871094 198.765625 117.871094 C 197.09375 117.871094 195.789063 116.636719 195.570313 114.976563 L 196.871094 114.703125 C 196.859375 115.84375 197.765625 116.664063 198.875 116.664063 C 199.984375 116.664063 200.78125 115.734375 200.78125 114.648438 C 200.78125 113.535156 199.890625 113.054688 198.996094 112.683594 L 198.285156 112.382813 C 197.105469 111.878906 196.03125 111.207031 196.03125 109.761719 C 196.03125 108.089844 197.519531 107.085938 199.082031 107.085938 C 200.234375 107.085938 201.179688 107.652344 201.742188 108.652344 "/>
<path style=" stroke:none;fill-rule:nonzero;fill:rgb(39.199829%,73.298645%,74.499512%);fill-opacity:1;" d="M 228.761719 109.269531 C 228.378906 108.621094 227.882813 108.292969 227.097656 108.292969 C 226.277344 108.292969 225.371094 108.859375 225.371094 109.761719 C 225.371094 110.574219 226.167969 111 226.8125 111.246094 L 227.554688 111.535156 C 229.023438 112.109375 230.121094 112.921875 230.121094 114.648438 C 230.121094 116.527344 228.664063 117.871094 226.8125 117.871094 C 225.140625 117.871094 223.835938 116.636719 223.617188 114.976563 L 224.921875 114.703125 C 224.902344 115.84375 225.8125 116.664063 226.921875 116.664063 C 228.035156 116.664063 228.828125 115.734375 228.828125 114.648438 C 228.828125 113.535156 227.9375 113.054688 227.046875 112.683594 L 226.332031 112.382813 C 225.152344 111.878906 224.085938 111.207031 224.085938 109.761719 C 224.085938 108.089844 225.5625 107.085938 227.128906 107.085938 C 228.28125 107.085938 229.226563 107.652344 229.792969 108.652344 "/>
<path style=" stroke:none;fill-rule:nonzero;fill:rgb(39.199829%,73.298645%,74.499512%);fill-opacity:1;" d="M 89.433594 21.386719 C 89.433594 21.386719 97.722656 26.199219 102.90625 38.867188 C 108.089844 51.535156 119.101563 59.96875 130.621094 52.871094 C 130.621094 52.871094 125.476563 36.175781 110.304688 29.835938 C 110.304688 29.835938 127.90625 30.972656 133.679688 50.957031 C 133.679688 50.957031 138.84375 41.769531 132.316406 31.398438 C 121.503906 14.210938 89.433594 21.386719 89.433594 21.386719 "/>
<path style=" stroke:none;fill-rule:nonzero;fill:rgb(39.199829%,73.298645%,74.499512%);fill-opacity:1;" d="M 184.632813 21.386719 C 184.632813 21.386719 176.347656 26.199219 171.164063 38.867188 C 165.980469 51.535156 154.96875 59.96875 143.449219 52.871094 C 143.449219 52.871094 148.589844 36.175781 163.765625 29.835938 C 163.765625 29.835938 146.164063 30.972656 140.390625 50.957031 C 140.390625 50.957031 135.226563 41.769531 141.753906 31.398438 C 152.566406 14.210938 184.632813 21.386719 184.632813 21.386719 "/>
<path style=" stroke:none;fill-rule:nonzero;fill:rgb(39.199829%,73.298645%,74.499512%);fill-opacity:1;" d="M 147.878906 10.953125 C 147.878906 17.003906 142.972656 21.910156 136.921875 21.910156 C 130.871094 21.910156 125.964844 17.003906 125.964844 10.953125 C 125.964844 4.902344 130.871094 -0.00390625 136.921875 -0.00390625 C 142.972656 -0.00390625 147.878906 4.902344 147.878906 10.953125 "/>
</g>
</svg>
